<svg id="svg" version="1.1" xmlns="http://www.w3.org/2000/svg" xmlns:xlink="http://www.w3.org/1999/xlink" width="400" height="400" viewBox="0, 0, 400,400"><g id="svgg"><path id="path0" d="M188.945 0.372 C 72.290 7.310,-13.074 110.401,1.870 226.296 C 12.459 308.414,73.901 376.015,155.000 394.775 C 234.567 413.181,317.815 381.028,364.185 313.982 C 430.656 217.872,401.476 86.363,300.556 27.219 C 267.562 7.884,226.941 -1.887,188.945 0.372 M197.407 19.815 L 197.407 34.074 200.000 34.074 L 202.593 34.074 202.593 19.815 L 202.593 5.556 205.463 5.563 C 250.004 5.685,305.231 28.813,334.715 59.693 L 335.911 60.946 326.108 70.744 L 316.305 80.541 318.238 82.498 L 320.170 84.455 330.018 74.612 L 339.866 64.768 343.003 68.218 C 374.868 103.256,394.354 150.829,394.439 193.796 L 394.444 196.296 382.037 196.296 L 369.630 196.296 369.630 198.884 L 369.630 201.471 381.944 201.569 L 394.259 201.667 394.381 204.259 C 394.649 209.980,393.088 225.634,391.264 235.510 C 384.507 272.092,366.335 307.736,341.150 333.801 L 339.088 335.935 329.365 326.217 L 319.641 316.498 317.778 318.333 L 315.914 320.169 325.623 329.882 L 335.331 339.595 334.610 340.401 C 331.039 344.393,316.265 356.304,308.148 361.737 C 278.190 381.787,238.385 394.444,205.286 394.444 L 202.593 394.444 202.593 382.037 L 202.593 369.630 200.000 369.630 L 197.407 369.630 197.407 382.095 L 197.407 394.559 191.673 394.312 C 145.230 392.310,102.941 374.703,68.036 342.836 L 64.775 339.860 74.884 329.746 L 84.993 319.632 83.051 317.690 L 81.109 315.748 70.993 325.859 L 60.877 335.970 58.309 333.259 C 26.053 299.202,5.556 249.410,5.556 205.111 L 5.556 201.852 16.667 201.852 L 27.778 201.852 27.778 199.259 L 27.778 196.667 16.667 196.667 L 5.556 196.667 5.557 194.167 C 5.583 150.546,25.798 101.610,58.072 67.037 L 60.319 64.630 70.441 74.723 L 80.562 84.817 82.504 82.875 L 84.446 80.933 74.353 70.810 L 64.259 60.686 66.852 58.267 C 101.862 25.594,148.447 6.270,193.796 5.608 L 197.407 5.556 197.407 19.815 M251.703 143.668 L 204.703 190.668 203.231 190.149 C 194.537 187.081,186.824 197.285,192.355 204.537 C 198.640 212.776,211.708 206.724,209.120 196.772 L 208.563 194.630 255.663 147.507 L 302.763 100.384 300.933 98.525 C 299.926 97.503,299.012 96.667,298.902 96.667 C 298.792 96.667,277.553 117.817,251.703 143.668 " stroke="none" fill="#060606" fill-rule="evenodd"></path><path id="path1" d="M0.059 94.537 C 0.092 146.532,0.174 188.491,0.242 187.778 C 0.309 187.065,0.544 184.315,0.764 181.667 C 8.821 84.416,88.569 7.052,187.778 0.244 C 188.694 0.181,146.819 0.100,94.722 0.065 L 0.000 0.000 0.059 94.537 M212.778 0.239 C 313.894 8.048,392.436 85.835,399.593 185.258 C 399.760 187.574,399.918 147.117,399.947 94.722 L 400.000 0.000 305.648 0.062 C 253.755 0.097,211.963 0.176,212.778 0.239 M190.370 5.950 C 144.875 8.042,94.631 29.586,66.121 59.226 L 64.650 60.756 74.737 70.848 L 84.825 80.941 82.778 82.963 L 80.731 84.985 70.637 74.896 L 60.543 64.807 58.110 67.311 C 27.099 99.225,7.186 147.192,5.831 193.242 L 5.741 196.298 16.759 196.297 L 27.778 196.296 27.778 199.259 L 27.778 202.222 16.759 202.221 L 5.741 202.221 5.829 205.833 C 6.961 252.196,26.263 299.236,57.715 332.288 L 60.872 335.605 70.986 325.495 L 81.101 315.386 83.148 317.407 L 85.195 319.429 75.108 329.522 L 65.020 339.615 66.492 341.148 C 68.649 343.398,76.953 350.489,81.852 354.266 C 113.467 378.642,153.838 393.100,193.241 394.157 L 197.038 394.259 197.037 381.759 L 197.037 369.259 200.000 369.259 L 202.963 369.259 202.963 381.667 L 202.963 394.074 206.574 394.069 C 249.419 394.014,299.228 373.576,331.852 342.666 L 335.000 339.683 325.273 329.926 L 315.545 320.170 317.593 318.148 L 319.640 316.126 329.363 325.844 L 339.086 335.562 341.700 332.874 C 373.246 300.431,393.016 252.490,394.166 205.648 L 394.259 201.851 381.759 201.851 L 369.259 201.852 369.259 198.889 L 369.259 195.926 381.725 195.926 L 394.191 195.926 393.952 189.722 C 392.505 152.121,377.960 112.585,354.267 81.852 C 350.754 77.295,343.119 68.367,341.051 66.396 L 339.795 65.200 330.178 74.822 C 319.292 85.714,320.366 85.032,317.957 82.587 L 316.128 80.729 325.927 70.925 L 335.725 61.121 333.696 59.058 C 304.049 28.916,254.265 7.630,209.722 6.049 L 202.963 5.809 202.963 20.127 L 202.963 34.444 200.000 34.444 L 197.037 34.444 197.037 20.000 C 197.037 12.056,196.912 5.581,196.759 5.612 C 196.606 5.644,193.731 5.796,190.370 5.950 M213.889 58.324 C 244.869 61.503,272.420 73.491,295.549 93.856 C 297.073 95.198,298.497 96.296,298.714 96.296 C 299.089 96.296,301.119 98.297,302.216 99.748 C 302.682 100.364,298.743 104.404,255.741 147.407 L 208.756 194.393 209.193 195.851 C 211.166 202.438,206.760 208.502,200.000 208.502 C 194.461 208.502,190.365 204.499,190.374 199.094 C 190.382 194.144,194.350 189.630,198.692 189.630 L 200.000 189.630 200.000 123.704 L 200.000 57.778 204.352 57.785 C 206.745 57.789,211.037 58.032,213.889 58.324 M0.052 305.463 L 0.000 400.000 94.722 399.929 C 146.819 399.889,188.361 399.804,187.037 399.738 C 179.447 399.364,165.386 397.344,156.358 395.332 C 70.610 376.217,7.134 302.814,0.416 215.000 C 0.236 212.646,0.082 250.849,0.052 305.463 M399.629 213.241 C 399.629 214.412,399.287 218.370,398.869 222.037 C 387.824 318.853,310.659 392.617,212.963 399.749 C 212.046 399.816,253.755 399.900,305.648 399.935 L 400.000 400.000 400.000 305.556 C 400.000 253.611,399.917 211.111,399.815 211.111 C 399.713 211.111,399.630 212.069,399.629 213.241 " stroke="none" fill="#fbfbfb" fill-rule="evenodd"></path><path id="path2" d="M194.356 5.818 C 194.817 5.906,195.484 5.903,195.838 5.810 C 196.192 5.717,195.815 5.645,195.000 5.649 C 194.185 5.653,193.895 5.729,194.356 5.818 M200.000 123.704 L 200.000 189.630 201.272 189.630 C 201.972 189.630,203.005 189.805,203.568 190.019 C 204.572 190.401,205.466 189.533,251.463 143.537 C 277.242 117.758,298.494 96.667,298.689 96.667 C 298.883 96.667,299.717 97.292,300.540 98.056 L 302.037 99.444 300.573 97.870 C 299.768 97.005,298.931 96.296,298.714 96.296 C 298.497 96.296,297.073 95.198,295.549 93.856 C 270.157 71.499,235.619 57.838,204.352 57.785 L 200.000 57.778 200.000 123.704 M342.222 59.444 C 342.913 60.157,343.562 60.741,343.664 60.741 C 343.766 60.741,343.284 60.157,342.593 59.444 C 341.902 58.731,341.253 58.148,341.151 58.148 C 341.049 58.148,341.531 58.731,342.222 59.444 M74.444 70.926 C 80.044 76.528,84.708 81.111,84.810 81.111 C 84.912 81.111,80.414 76.528,74.815 70.926 C 69.216 65.324,64.551 60.741,64.449 60.741 C 64.348 60.741,68.845 65.324,74.444 70.926 M329.812 74.907 L 320.185 84.630 329.907 75.003 C 335.255 69.708,339.630 65.333,339.630 65.280 C 339.630 65.018,338.758 65.873,329.812 74.907 M5.649 194.630 C 5.653 195.444,5.729 195.734,5.818 195.273 C 5.906 194.813,5.903 194.146,5.810 193.792 C 5.717 193.438,5.645 193.815,5.649 194.630 M394.130 194.532 L 394.074 195.916 381.574 196.019 L 369.074 196.121 381.586 196.209 C 395.216 196.304,394.671 196.390,394.342 194.198 C 394.210 193.312,394.176 193.364,394.130 194.532 M5.641 203.704 C 5.641 204.417,5.718 204.708,5.811 204.352 C 5.904 203.995,5.904 203.412,5.811 203.056 C 5.718 202.699,5.641 202.991,5.641 203.704 M70.923 325.648 L 60.926 335.741 71.019 325.743 C 80.397 316.453,81.278 315.556,81.016 315.556 C 80.964 315.556,76.422 320.097,70.923 325.648 M317.395 318.426 L 315.370 320.556 317.500 318.531 C 319.478 316.650,319.799 316.296,319.524 316.296 C 319.467 316.296,318.508 317.255,317.395 318.426 M58.148 341.296 C 59.460 342.620,60.617 343.704,60.719 343.704 C 60.821 343.704,59.831 342.620,58.519 341.296 C 57.206 339.972,56.049 338.889,55.947 338.889 C 55.845 338.889,56.836 339.972,58.148 341.296 M194.356 394.336 C 194.817 394.425,195.484 394.421,195.838 394.329 C 196.192 394.236,195.815 394.163,195.000 394.167 C 194.185 394.172,193.895 394.247,194.356 394.336 " stroke="none" fill="#bcacfc" fill-rule="evenodd"></path><path id="path3" d="M204.537 5.811 C 204.894 5.904,205.477 5.904,205.833 5.811 C 206.190 5.718,205.898 5.641,205.185 5.641 C 204.472 5.641,204.181 5.718,204.537 5.811 M317.963 82.593 C 318.966 83.611,319.870 84.444,319.972 84.444 C 320.074 84.444,319.337 83.611,318.333 82.593 C 317.330 81.574,316.426 80.741,316.324 80.741 C 316.222 80.741,316.960 81.574,317.963 82.593 M251.296 143.796 L 204.259 190.926 251.389 143.889 C 295.205 100.160,298.684 96.667,298.425 96.667 C 298.374 96.667,277.166 117.875,251.296 143.796 M394.175 205.926 C 394.175 206.843,394.247 207.218,394.335 206.759 C 394.424 206.301,394.424 205.551,394.335 205.093 C 394.247 204.634,394.175 205.009,394.175 205.926 M5.656 206.296 C 5.656 207.213,5.729 207.588,5.817 207.130 C 5.905 206.671,5.905 205.921,5.817 205.463 C 5.729 205.005,5.656 205.380,5.656 206.296 M82.963 317.593 C 84.069 318.713,85.058 319.630,85.160 319.630 C 85.262 319.630,84.440 318.713,83.333 317.593 C 82.227 316.472,81.238 315.556,81.136 315.556 C 81.035 315.556,81.857 316.472,82.963 317.593 M329.074 325.926 C 334.367 331.222,338.782 335.556,338.884 335.556 C 338.985 335.556,334.738 331.222,329.444 325.926 C 324.151 320.630,319.737 316.296,319.635 316.296 C 319.533 316.296,323.781 320.630,329.074 325.926 M204.537 394.329 C 204.894 394.423,205.477 394.423,205.833 394.329 C 206.190 394.236,205.898 394.160,205.185 394.160 C 204.472 394.160,204.181 394.236,204.537 394.329 " stroke="none" fill="#837c96" fill-rule="evenodd"></path><path id="path4" d="M192.315 0.255 C 192.671 0.348,193.255 0.348,193.611 0.255 C 193.968 0.162,193.676 0.086,192.963 0.086 C 192.250 0.086,191.958 0.162,192.315 0.255 M206.024 0.266 C 206.587 0.351,207.420 0.349,207.875 0.261 C 208.331 0.173,207.870 0.103,206.852 0.106 C 205.833 0.109,205.461 0.181,206.024 0.266 M190.463 5.811 C 190.819 5.904,191.403 5.904,191.759 5.811 C 192.116 5.718,191.824 5.641,191.111 5.641 C 190.398 5.641,190.106 5.718,190.463 5.811 M197.216 19.815 L 197.222 34.259 200.000 34.259 L 202.778 34.259 202.784 19.815 L 202.791 5.370 202.688 19.722 L 202.584 34.074 200.000 34.074 L 197.416 34.074 197.312 19.722 L 197.209 5.370 197.216 19.815 M207.130 5.821 C 207.690 5.906,208.606 5.906,209.167 5.821 C 209.727 5.736,209.269 5.667,208.148 5.667 C 207.028 5.667,206.569 5.736,207.130 5.821 M62.384 54.907 L 61.296 56.111 62.500 55.023 C 63.622 54.009,63.874 53.704,63.588 53.704 C 63.524 53.704,62.982 54.245,62.384 54.907 M54.606 62.685 L 53.519 63.889 54.722 62.801 C 55.844 61.787,56.096 61.481,55.810 61.481 C 55.746 61.481,55.205 62.023,54.606 62.685 M344.815 62.338 C 344.815 62.402,345.356 62.944,346.019 63.542 L 347.222 64.630 346.134 63.426 C 345.120 62.304,344.815 62.052,344.815 62.338 M57.940 67.130 L 56.852 68.333 58.056 67.246 C 59.178 66.232,59.430 65.926,59.143 65.926 C 59.080 65.926,58.538 66.468,57.940 67.130 M340.741 66.042 C 340.741 66.106,341.282 66.647,341.944 67.246 L 343.148 68.333 342.060 67.130 C 341.046 66.008,340.741 65.756,340.741 66.042 M82.393 83.056 L 80.556 85.000 82.500 83.162 C 84.307 81.454,84.614 81.111,84.338 81.111 C 84.279 81.111,83.404 81.986,82.393 83.056 M5.641 190.741 C 5.641 191.454,5.718 191.745,5.811 191.389 C 5.904 191.032,5.904 190.449,5.811 190.093 C 5.718 189.736,5.641 190.028,5.641 190.741 M394.160 190.741 C 394.160 191.454,394.236 191.745,394.329 191.389 C 394.423 191.032,394.423 190.449,394.329 190.093 C 394.236 189.736,394.160 190.028,394.160 190.741 M0.093 193.148 C 0.098 193.963,0.173 194.253,0.262 193.792 C 0.351 193.331,0.347 192.665,0.254 192.310 C 0.162 191.956,0.089 192.333,0.093 193.148 M399.723 193.148 C 399.727 193.963,399.803 194.253,399.892 193.792 C 399.980 193.331,399.977 192.665,399.884 192.310 C 399.791 191.956,399.719 192.333,399.723 193.148 M11.041 196.573 C 14.160 196.635,19.160 196.635,22.153 196.573 C 25.145 196.511,22.593 196.460,16.481 196.460 C 10.370 196.461,7.922 196.511,11.041 196.573 M369.333 198.981 L 369.259 201.852 381.759 201.764 L 394.259 201.677 381.961 201.574 L 369.662 201.472 369.534 198.791 L 369.406 196.111 369.333 198.981 M11.041 202.129 C 14.160 202.191,19.160 202.191,22.153 202.129 C 25.145 202.067,22.593 202.016,16.481 202.016 C 10.370 202.016,7.922 202.067,11.041 202.129 M0.093 207.222 C 0.098 208.037,0.173 208.327,0.262 207.866 C 0.351 207.405,0.347 206.739,0.254 206.385 C 0.162 206.030,0.089 206.407,0.093 207.222 M399.716 207.037 C 399.716 207.750,399.792 208.042,399.885 207.685 C 399.978 207.329,399.978 206.745,399.885 206.389 C 399.792 206.032,399.716 206.324,399.716 207.037 M394.175 208.889 C 394.175 209.806,394.247 210.181,394.335 209.722 C 394.424 209.264,394.424 208.514,394.335 208.056 C 394.247 207.597,394.175 207.972,394.175 208.889 M5.649 209.074 C 5.653 209.889,5.729 210.179,5.818 209.718 C 5.906 209.257,5.903 208.591,5.810 208.236 C 5.717 207.882,5.645 208.259,5.649 209.074 M325.370 330.000 C 330.664 335.296,335.078 339.630,335.180 339.630 C 335.282 339.630,331.034 335.296,325.741 330.000 C 320.447 324.704,316.033 320.370,315.931 320.370 C 315.829 320.370,320.077 324.704,325.370 330.000 M332.014 342.685 L 330.926 343.889 332.130 342.801 C 332.792 342.203,333.333 341.661,333.333 341.597 C 333.333 341.311,333.028 341.563,332.014 342.685 M62.963 345.671 C 62.963 345.735,63.505 346.277,64.167 346.875 L 65.370 347.963 64.283 346.759 C 63.269 345.637,62.963 345.385,62.963 345.671 M197.212 369.709 C 197.110 369.974,197.073 375.690,197.130 382.410 L 197.233 394.630 197.320 382.130 L 197.407 369.630 199.995 369.630 L 202.583 369.630 202.688 381.944 L 202.793 394.259 202.785 381.852 L 202.778 369.444 200.087 369.336 C 198.138 369.257,197.346 369.359,197.212 369.709 M190.463 394.329 C 190.819 394.423,191.403 394.423,191.759 394.329 C 192.116 394.236,191.824 394.160,191.111 394.160 C 190.398 394.160,190.106 394.236,190.463 394.329 M207.130 394.339 C 207.690 394.424,208.606 394.424,209.167 394.339 C 209.727 394.254,209.269 394.185,208.148 394.185 C 207.028 394.185,206.569 394.254,207.130 394.339 M192.315 399.885 C 192.671 399.978,193.255 399.978,193.611 399.885 C 193.968 399.792,193.676 399.716,192.963 399.716 C 192.250 399.716,191.958 399.792,192.315 399.885 M206.024 399.895 C 206.587 399.981,207.420 399.978,207.875 399.890 C 208.331 399.802,207.870 399.733,206.852 399.736 C 205.833 399.738,205.461 399.810,206.024 399.895 " stroke="none" fill="#747474" fill-rule="evenodd"></path></g></svg>